<?xml version="1.0" encoding="utf-8"?>

<!DOCTYPE svg PUBLIC "-//W3C//DTD SVG 1.1//EN" "http://www.w3.org/Graphics/SVG/1.1/DTD/svg11.dtd">
<svg version="1.1" id="Layer_1" xmlns="http://www.w3.org/2000/svg" xmlns:xlink="http://www.w3.org/1999/xlink" x="0px" y="0px"
	 viewBox="0 0 1943.39 1635.117" enable-background="new 0 0 1943.39 1635.117" xml:space="preserve">
<path d="M1629.054,730.768c0,0,4.477,1.853,8.182-0.463c2.007-3.551,56.7-65.065,59.593-63.607l-12.379-8.913
	c-1.5-1.08-1.493-3.315,0.015-4.385c12.237-8.688,11.906-8.709,13.77-8.994l30.861-4.725c0,0,16.674-18.681,39.368-12.66
	c0,0,45.544,5.249,82.75,71.48c0,0,19.761,32.112,4.477,51.565c0,0-4.547,7.027-8.063,10.597c-2.386,2.423-1.322,4.087-3.209,6.589
	c-1.96,2.599-6.465,8.302-10.61,11.586c-1.075,0.851-2.53,1.079-3.823,0.561c0,0-59.361,58.975-76.807,66.54
	c0,0-10.189,5.712-11.116,9.881l-0.474,2.133c-0.758,3.412-5.849,3.11-7.902,2.638c-2.841-0.653-2.375-2.417-3.999-3.431
	c-0.748-0.467-1.658-0.6-2.532-0.481c-24.519,3.352-24.726,4.02-27.167,1.794c-1.897-1.73-1.723-3.668-1.771-5.535
	c0,0-6.484,6.073-18.32,3.499l224.167,526.248c0,0,19.761,27.995,18.115,80.898s0.823,111.363-4.94,127.213
	s-16.674-14.203-16.674-14.203s-20.379-64.43-26.143-86.662c-6.476-24.977-84.504-136.362-83.162-137.094L1672.9,1166.134
	c0,0-5.558,4.94-9.366,5.352c-3.808,0.412-5.661,0-3.294-5.558c2.367-5.558,6.175-9.675,6.175-9.675l-56.093-87.382
	c0,0-10.087,6.69-12.557,7.102c-2.47,0.412-7.307,1.235-4.117-5.146c3.191-6.381,9.984-13.792,9.984-13.792
	s-66.489-103.129-71.943-108.481c-5.455-5.352-8.543-1.956-8.543-1.956s-6.793,5.146-8.337,7.719
	c-1.544,2.573-4.426-0.823-4.426-0.823s-23.364-22.54-19.658-32.524c3.705-9.984,7.205-11.424,4.117-18.32
	c-12.265-27.393-20.013-32.529-50.227-76.575c-8.193,5.791-19.29,8.022-14.409-1.544c2.573-5.043,6.587-9.366,6.587-9.366
	l-42.713-56.196c0,0-12.454,8.44-17.6,8.646s-8.337-2.779-5.249-7.308c3.088-4.529,12.042-14.203,12.042-14.203
	s-28.199-32.143-42.468-45.843c-3.897-3.742-9.951-4.041-14.179-0.677c-42.397,33.74-271.207,215.961-284.853,229.621
	c-14.951,14.966-163.478,116.28-170.853,120.215c-5.909,3.152-18.732,46.933-2.367,173.22l32.421,239.915
	c9.372,36.52,7.086,40.779,9.269,52.894l5.387,29.909c1.429,7.932-1.693,15.997-8.089,20.901l-63.69,48.829
	c-6.918,3.385-13.814,3.306-20.688-0.309c-27.598-19.094-36.619-15.807-52.8-14.512c-5.602,0.875-7.638-3.072-7.102-10.498
	c0,0-3.191-0.926-1.956-2.47c1.235-1.544,4.837-3.808,4.734-8.44c-0.103-4.632-4.549-35.448-6.278-43.537
	c-3.857-18.042-67.835-189.474-75.134-213.978c-2.882-9.675-21.202-59.696-22.232-65.253s-12.763-39.111-17.497-45.904
	c-4.734-6.793-12.763-16.879-20.996-18.32c0,0-30.465,12.968-33.759,13.174c-3.294,0.206-5.558-4.117-5.558-4.117
	s-51.256-45.698-54.138-51.873c-2.882-6.175,3.705-6.587,6.381-15.439c2.676-8.851,10.086-36.023-18.938-47.962
	C246.601,974.053,155.641,932.851,123.284,929.616l1.853-2.882c-8.955-0.101-19.042,0.871-29.824,2.502
	c-2.01,0.304-3.918-1.042-4.26-3.047c-2.097-12.278-6.494-24.358-14.917-32.814c-13.624-13.678-31.832-26.985-53.087-40.046
	c-2.277-1.399-2.609-4.578-0.663-6.41l48.267-45.436c3.634-3.421,8.625-5.009,13.568-4.315l100.551,14.098
	c14.266,2.224,26.212-1.041,45.617,7.296c5.187,2.228,10.579,3.941,16.099,5.121c59.695,12.758,367.676,78.384,396.662,80.614
	c32.112,2.47,71.017,3.705,121.964-21.923c35.813-18.015,75.858-45.812,81.495-52.433c1.354-1.591,2.662-3.276,4.382-4.462
	c31.727-21.879,215.695-183.6,216.695-184.463c8.995-7.762,17.057-16.535,24.022-26.161c15.231-21.051,38.887-56.321,38.991-72.437
	c0.154-23.775-17.754-45.389-85.066-88.154c-31.96,19.533-31.942,4.712-14.667-10.035l-69.937-40.603
	c-4.993,3.812-10.097,6.799-15.535,7.277c-1.213,0.107-2.243-0.893-2.211-2.111c0.131-5.081,2.412-9.029,6.476-12.037
	c-61.193-33.484-85.552-48.889-100.273-46.624c-6.113,0.941-10.056,9.11-24.702,1.389c-6.158-3.246-23.168-15.445-23.168-15.445
	c-0.693-0.462-0.753-1.457-0.122-2l8.624-7.411c0,0,2.779-2.239-0.386-5.095s-23.312-15.439-34.351-20.147
	c-11.039-4.709-84.835-41.607-84.835-41.607c-13.643,8.258-15.197,10.025-18.537,8.41c-1.61-0.779-1.949-2.943-0.78-4.297
	l8.279-9.593c0,0-87.228-42.456-91.242-44.695c-4.115,3.549-8.626,5.925-13.614,6.891c-3.173,0.615-3.096-6.487,4.428-11.909
	L284.822,62.28c0,0-9.881-6.33-52.028-13.432s-61.445-13.586-63.761-16.21s-1.235-4.477,1.544-5.249
	c2.779-0.772,103.284-10.961,125.515-9.726c49.246,2.736-44.712-25.546,620.32,183.873c0,0,27.583,10.087,35.2,4.94
	s12.042-9.263,12.042-9.263s-3.396-6.69,10.704-23.261s60.21-58.255,60.21-58.255l-12.295-8.588
	c-0.845-0.591-0.877-1.831-0.063-2.464c6.694-5.2,9.985-8.452,16.994-9.781c8.144-1.544,17.064-2.239,26.446-2.427
	c0,0,12.454-12.454,21.305-13.689c0,0,18.115-7.205,42.302,11.322s41.684,40.655,47.962,56.505
	c6.278,15.85,17.703,41.581,2.985,57.225s-59.078,57.637-73.899,57.637c111.869,31.56,174.787,50.081,189.276,50.638
	c12.042,0.463,61.658,14.313,100.813,2.625c41.375-12.351,87.536-34.582,97.572-42.456l117.024-101.74
	c66.02-60.768,143.998-110.162,191.273-114.025c10.286-0.84,35.782-13.362,81.834-5.624c13.862,2.329,22.081,9.129,21.459,20.533
	c-5.332,97.768-133.507,207.419-227.306,289.884l-135.447,121.861c8.234,74.517,46.727,159.737,87.073,248.663"/>
</svg>
